<svg clip-rule="evenodd" fill-rule="evenodd" image-rendering="optimizeQuality" shape-rendering="geometricPrecision"
    text-rendering="geometricPrecision" viewBox="0 0 50 50" xmlns="http://www.w3.org/2000/svg"
    xmlns:xlink="http://www.w3.org/1999/xlink">
    <ellipse cx="25" cy="18.126" rx="7.161" ry="6.834" fill="currentColor" stroke-linejoin="round"
        paint-order="markers fill stroke" stroke="#000" />
    <path d="M25 24.598c-5.228.044-7.985-.028-8.394 4.508h16.788c-.41-4.536-3.165-4.464-8.394-4.508z"
        fill="currentColor" stroke="#000" />
    <path d="M20.484 29.106c.496 6.787-9.303 7.996-8.706 17.19h26.444c.597-9.194-9.202-10.403-8.706-17.19H25z"
        fill="currentColor" stroke="#000" />
    <path d="M19.884 21.629c-.528.225-4.585-7.628 4.867-9.772.717-.119 1.252.64.008 1.04 0 0-7.74 3.346-4.875 8.732z"
        fill="#fff" opacity=".8" />
    <path d="M12.504 45.701c-.324-1.24-.204-3.973 3.513-8.008-.37 2.437-3.065 5.393-.9 8.024z" fill="#fff"
        opacity=".7" />
    <path d="M17.282 28.557s-.026-2.905 3.106-3.142c-1.079 1.212-1.462 1.906-.933 3.174z" fill="#fff" opacity=".8" />
    <path transform="matrix(.98092 0 0 .9722 -247.86 127.42)"
        d="M275.09-101.12c.228 6.037 18.734 9.314 16.553 17.682 1.286-7.878-9.282-10.089-8.875-17.682z" opacity=".1"
        style="mix-blend-mode:normal" />
    <path transform="matrix(.98092 0 0 .9722 -248.05 126.34)"
        d="M278.37-118.34c4.975.663 6.596 10.501 1.92 13.454 0 0 3.409.512 3.967 2.688.17.66.468 2.181.468 2.181h2.202s-.196-1.54-.47-2.164c-.888-2.035-4.685-2.771-4.685-2.771 1.871-1.18 3.898-4.253 3.898-6.358.388-4.551-5.508-7.548-7.3-7.03z"
        opacity=".15" style="mix-blend-mode:normal" />
</svg>